<svg id="Capa_1" enable-background="new 0 0 512 512" fill="#555" height="512" viewBox="0 0 512 512" width="512" xmlns="http://www.w3.org/2000/svg"><g><path d="m467 60h-109.384c-5.628-11.814-17.683-20-31.616-20h-17.079c-6.545-23.061-27.792-40-52.921-40s-46.376 16.939-52.921 40h-17.079c-13.933 0-25.988 8.186-31.616 20h-109.384c-24.813 0-45 20.187-45 45v362c0 24.813 20.187 45 45 45h422c24.813 0 45-20.187 45-45v-362c0-24.813-20.187-45-45-45zm-286 15c0-2.757 2.243-5 5-5h30c8.284 0 15-6.716 15-15 0-13.785 11.215-25 25-25s25 11.215 25 25c0 8.284 6.716 15 15 15h30c2.757 0 5 2.243 5 5v25h-150zm301 392c0 8.271-6.729 15-15 15h-422c-8.271 0-15-6.729-15-15v-362c0-8.271 6.729-15 15-15h106v25c0 8.284 6.716 15 15 15h180c8.284 0 15-6.716 15-15v-25h106c8.271 0 15 6.729 15 15z"/><path d="m225 231c0-27.57-22.43-50-50-50s-50 22.43-50 50 22.43 50 50 50 50-22.43 50-50zm-50 30c-16.542 0-30-13.458-30-30s13.458-30 30-30 30 13.458 30 30-13.458 30-30 30z"/><path d="m403 181c-27.57 0-50 22.43-50 50s22.43 50 50 50 50-22.43 50-50-22.43-50-50-50zm0 80c-16.542 0-30-13.458-30-30s13.458-30 30-30 30 13.458 30 30-13.458 30-30 30z"/><path d="m81.001 271c0 5.523 4.477 10 10 10s10-4.477 10-10v-70h12.18c5.523 0 10-4.477 10-10s-4.477-10-10-10h-44.181c-5.523 0-10 4.477-10 10s4.477 10 10 10h12.001z"/><path d="m426 329h-220c-8.284 0-15 6.716-15 15s6.716 15 15 15h220c8.284 0 15-6.716 15-15s-6.716-15-15-15z"/><path d="m146 329h-60c-8.284 0-15 6.716-15 15s6.716 15 15 15h60c8.284 0 15-6.716 15-15s-6.716-15-15-15z"/><path d="m426 389h-220c-8.284 0-15 6.716-15 15s6.716 15 15 15h220c8.284 0 15-6.716 15-15s-6.716-15-15-15z"/><path d="m146 389h-60c-8.284 0-15 6.716-15 15s6.716 15 15 15h60c8.284 0 15-6.716 15-15s-6.716-15-15-15z"/><path d="m268.153 278.097c1.882 1.869 4.432 2.913 7.083 2.903.685-.002 16.84-.065 23.294-.178 24.03-.419 41.47-21.373 41.47-49.822 0-29.907-17.001-50-42.306-50h-22.658c-5.379-.106-10.116 4.64-10 10.019 0 0 .161 79.728.162 80.018.01 2.651 1.073 5.192 2.955 7.06zm29.541-77.097c16.446 0 22.306 15.497 22.306 30 0 14.656-6.746 29.562-21.818 29.825-2.99.052-8.269.094-13.018.124-.031-9.468-.094-50.116-.11-59.949z"/></g></svg>